<?xml version="1.0" encoding="utf-8"?>
<!-- Generator: Adobe Illustrator 26.5.0, SVG Export Plug-In . SVG Version: 6.00 Build 0)  -->
<svg version="1.1" id="Layer_1" xmlns="http://www.w3.org/2000/svg" xmlns:xlink="http://www.w3.org/1999/xlink" x="0px" y="0px"
	 viewBox="0 0 163.297 169.706" enable-background="new 0 0 163.297 169.706" xml:space="preserve">
<g id="Alan_walker">
	<path fill="#FFFFFF" stroke="#000000" stroke-width="1.7616" stroke-miterlimit="10" d="M44.823,168.825h73.65
		c24.269,0,43.943-19.674,43.943-43.943V44.823c0-24.269-19.674-43.943-43.943-43.943h-73.65c-24.269,0-43.943,19.674-43.943,43.943
		v80.059C0.881,149.151,20.555,168.825,44.823,168.825z"/>
	<g id="surface1">
		<path fill="#05A19A" d="M24.62,36.495l7.872-0.718l24.261,76.784l22.84-34.737l23.012,35.098l19.594-62.355l8.684,0.028
			L105.22,130.8L79.701,92.272l-25.245,38.635"/>
		<g>
			<defs>
				<rect id="SVGID_1_" x="113.226" y="97.629" width="25.45" height="36.299"/>
			</defs>
			<clipPath id="SVGID_00000049195978823404903800000015718407786900932486_">
				<use xlink:href="#SVGID_1_"  overflow="visible"/>
			</clipPath>
			<g clip-path="url(#SVGID_00000049195978823404903800000015718407786900932486_)">
				<path fill="#1C1C1B" d="M130.738,133.924l7.937-1.979l-22.218-34.311l-3.111,9.723l17.392,26.571l7.94-1.981l-0.002-0.003"/>
			</g>
		</g>
		<path fill="#1C1C1B" d="M79.602,41.376l-48.339,75.797h8.932l39.385-61.461l27.513,40.942l2.795-8.896"/>
	</g>
</g>
</svg>
