<?xml version="1.0" encoding="utf-8"?>
<!-- Generator: Adobe Illustrator 26.5.0, SVG Export Plug-In . SVG Version: 6.00 Build 0)  -->
<svg version="1.1" id="Layer_1" xmlns="http://www.w3.org/2000/svg" xmlns:xlink="http://www.w3.org/1999/xlink" x="0px" y="0px"
	 viewBox="0 0 338.539 264.112" enable-background="new 0 0 338.539 264.112" xml:space="preserve">
<g id="DJ">
	
		<rect x="40.966" y="54.303" fill="none" stroke="#000000" stroke-width="6.9191" stroke-miterlimit="10" width="251.322" height="146.553"/>
	
		<ellipse fill="#FFFFFF" stroke="#000000" stroke-width="3.4595" stroke-miterlimit="10" cx="105.535" cy="121.109" rx="38.632" ry="46.01"/>
	
		<ellipse fill="#FFFFFF" stroke="#000000" stroke-width="0.8584" stroke-miterlimit="10" cx="105.535" cy="121.109" rx="9.395" ry="11.646"/>
	<path fill="#FFFFFF" stroke="#000000" stroke-width="3.4595" stroke-miterlimit="10" d="M110.513,92.671
		c-15.164-1.738-24.285,5.535-26.498,23.11"/>
	<path fill="#FFFFFF" stroke="#000000" stroke-width="3.4595" stroke-miterlimit="10" d="M100.173,151.117
		c14.817,4.359,24.672-1.255,28.852-18.271"/>
	
		<rect x="164.021" y="77.1" fill="#FFFFFF" stroke="#000000" stroke-width="2.5947" stroke-miterlimit="10" width="107.898" height="89.564"/>
	
		<rect x="230.706" y="86.017" fill="#FFFFFF" stroke="#000000" stroke-width="2.5947" stroke-miterlimit="10" width="7.487" height="25.112"/>
	
		<rect x="215.622" y="108.553" fill="#FFFFFF" stroke="#000000" stroke-width="2.5947" stroke-miterlimit="10" width="7.487" height="25.112"/>
	
		<rect x="198.721" y="86.017" fill="#FFFFFF" stroke="#000000" stroke-width="2.5947" stroke-miterlimit="10" width="7.487" height="25.112"/>
	
		<rect x="180.28" y="111.129" fill="#FFFFFF" stroke="#000000" stroke-width="2.5947" stroke-miterlimit="10" width="7.487" height="25.112"/>
	
		<rect x="247" y="83.441" fill="#FFFFFF" stroke="#000000" stroke-width="2.5947" stroke-miterlimit="10" width="7.487" height="25.112"/>
	
		<line fill="none" stroke="#000000" stroke-width="2.5947" stroke-miterlimit="10" x1="184.023" y1="80.467" x2="183.583" y2="110.765"/>
	
		<line fill="none" stroke="#000000" stroke-width="2.5947" stroke-miterlimit="10" x1="184.023" y1="136.605" x2="184.023" y2="165.084"/>
	
		<line fill="none" stroke="#000000" stroke-width="2.5947" stroke-miterlimit="10" x1="202.887" y1="112.13" x2="202.887" y2="164.356"/>
	
		<line fill="none" stroke="#000000" stroke-width="2.5947" stroke-miterlimit="10" x1="202.887" y1="80.467" x2="202.887" y2="85.016"/>
	
		<line fill="none" stroke="#000000" stroke-width="2.5947" stroke-miterlimit="10" x1="218.888" y1="80.467" x2="218.888" y2="107.217"/>
	
		<line fill="none" stroke="#000000" stroke-width="2.5947" stroke-miterlimit="10" x1="219.365" y1="135.24" x2="219.365" y2="163.082"/>
	
		<line fill="none" stroke="#000000" stroke-width="2.5947" stroke-miterlimit="10" x1="234.449" y1="80.467" x2="234.449" y2="85.016"/>
	
		<line fill="none" stroke="#000000" stroke-width="2.5947" stroke-miterlimit="10" x1="234.449" y1="112.494" x2="234.449" y2="161.808"/>
	
		<line fill="none" stroke="#000000" stroke-width="2.5947" stroke-miterlimit="10" x1="219.365" y1="135.24" x2="219.696" y2="134.24"/>
	
		<line fill="none" stroke="#000000" stroke-width="2.5947" stroke-miterlimit="10" x1="234.449" y1="156.349" x2="234.449" y2="163.082"/>
	
		<line fill="none" stroke="#000000" stroke-width="2.5947" stroke-miterlimit="10" x1="250.744" y1="80.467" x2="250.744" y2="82.742"/>
	
		<line fill="none" stroke="#000000" stroke-width="2.5947" stroke-miterlimit="10" x1="250.744" y1="109.673" x2="250.744" y2="163.082"/>
	
		<line fill="none" stroke="#000000" stroke-width="2.5947" stroke-miterlimit="10" x1="127.211" y1="125.596" x2="169.49" y2="89.02"/>
	
		<ellipse fill="none" stroke="#000000" stroke-width="2.5947" stroke-miterlimit="10" cx="172.499" cy="89.929" rx="3.156" ry="3.912"/>
	<polygon fill="none" stroke="#000000" stroke-width="2.5947" stroke-miterlimit="10" points="187.766,177.458 194.832,182.227 
		187.967,187.428 	"/>
	<path fill="none" stroke="#000000" stroke-width="2.0724" stroke-miterlimit="10" d="M29.475,263.076h279.589
		c15.706,0,28.439-12.733,28.439-28.439V29.475c0-15.706-12.733-28.439-28.439-28.439H29.475c-15.706,0-28.439,12.733-28.439,28.439
		v205.161C1.036,250.343,13.769,263.076,29.475,263.076z"/>
</g>
</svg>
