<?xml version="1.0" encoding="utf-8"?>
<!-- Generator: Adobe Illustrator 26.5.0, SVG Export Plug-In . SVG Version: 6.00 Build 0)  -->
<svg version="1.1" id="Layer_1" xmlns="http://www.w3.org/2000/svg" xmlns:xlink="http://www.w3.org/1999/xlink" x="0px" y="0px"
	 viewBox="0 0 164.541 172.436" enable-background="new 0 0 164.541 172.436" xml:space="preserve">
<g id="equalizer">
	<path fill="#FFFFFF" stroke="#000000" stroke-width="2" stroke-miterlimit="10" d="M20.965,166.218h122.611
		c8.668,0,15.694-7.027,15.694-15.694V21.912c0-8.668-7.027-15.694-15.694-15.694H20.965c-8.668,0-15.694,7.027-15.694,15.694
		v128.611C5.27,159.191,12.297,166.218,20.965,166.218z"/>
	
		<ellipse fill="#FFFFFF" stroke="#000000" stroke-width="6.0323" stroke-miterlimit="10" cx="32.353" cy="45.8" rx="12.479" ry="0.63"/>
	
		<ellipse fill="#FFFFFF" stroke="#000000" stroke-width="6.0323" stroke-miterlimit="10" cx="32.353" cy="56.027" rx="12.479" ry="0.63"/>
	
		<ellipse fill="#FFFFFF" stroke="#000000" stroke-width="6.0323" stroke-miterlimit="10" cx="32.353" cy="66.079" rx="12.479" ry="0.63"/>
	
		<ellipse fill="#FFFFFF" stroke="#000000" stroke-width="6.0323" stroke-miterlimit="10" cx="63.292" cy="66.079" rx="12.479" ry="0.63"/>
	
		<ellipse fill="#FFFFFF" stroke="#000000" stroke-width="6.0323" stroke-miterlimit="10" cx="63.027" cy="76.455" rx="12.479" ry="0.63"/>
	
		<ellipse fill="#FFFFFF" stroke="#000000" stroke-width="6.0323" stroke-miterlimit="10" cx="63.292" cy="87.164" rx="12.479" ry="0.63"/>
	
		<ellipse fill="#FFFFFF" stroke="#000000" stroke-width="6.0323" stroke-miterlimit="10" cx="93.958" cy="87.164" rx="12.479" ry="0.63"/>
	
		<ellipse fill="#FFFFFF" stroke="#000000" stroke-width="6.0323" stroke-miterlimit="10" cx="124.624" cy="87.164" rx="12.479" ry="0.63"/>
	
		<ellipse fill="#FFFFFF" stroke="#000000" stroke-width="6.0323" stroke-miterlimit="10" cx="123.959" cy="77.085" rx="12.479" ry="0.63"/>
	
		<ellipse fill="#FFFFFF" stroke="#000000" stroke-width="6.0323" stroke-miterlimit="10" cx="125.155" cy="66.079" rx="12.479" ry="0.63"/>
	
		<ellipse fill="#FFFFFF" stroke="#000000" stroke-width="6.0323" stroke-miterlimit="10" cx="124.624" cy="56.027" rx="12.479" ry="0.63"/>
	
		<ellipse fill="#FFFFFF" stroke="#000000" stroke-width="6.0323" stroke-miterlimit="10" cx="124.624" cy="45.8" rx="12.479" ry="0.63"/>
	
		<ellipse fill="#FFFFFF" stroke="#000000" stroke-width="6.0323" stroke-miterlimit="10" cx="123.959" cy="34.161" rx="12.479" ry="0.63"/>
	
		<ellipse fill="#FFFFFF" stroke="#000000" stroke-width="6.0323" stroke-miterlimit="10" cx="124.624" cy="97.344" rx="12.479" ry="0.63"/>
	
		<ellipse fill="#FFFFFF" stroke="#000000" stroke-width="6.0323" stroke-miterlimit="10" cx="124.624" cy="107.002" rx="12.479" ry="0.63"/>
	
		<ellipse fill="#FFFFFF" stroke="#000000" stroke-width="6.0323" stroke-miterlimit="10" cx="124.624" cy="116.66" rx="12.479" ry="0.63"/>
	
		<ellipse fill="#FFFFFF" stroke="#000000" stroke-width="6.0323" stroke-miterlimit="10" cx="124.624" cy="127.378" rx="12.479" ry="0.63"/>
	
		<ellipse fill="#FFFFFF" stroke="#000000" stroke-width="6.0323" stroke-miterlimit="10" cx="93.958" cy="97.344" rx="12.479" ry="0.63"/>
	
		<ellipse fill="#FFFFFF" stroke="#000000" stroke-width="6.0323" stroke-miterlimit="10" cx="94.223" cy="107.002" rx="12.479" ry="0.63"/>
	
		<ellipse fill="#FFFFFF" stroke="#000000" stroke-width="6.0323" stroke-miterlimit="10" cx="93.958" cy="117.719" rx="12.479" ry="0.63"/>
	
		<ellipse fill="#FFFFFF" stroke="#000000" stroke-width="6.0323" stroke-miterlimit="10" cx="93.958" cy="128.008" rx="12.479" ry="0.63"/>
	
		<ellipse fill="#FFFFFF" stroke="#000000" stroke-width="6.0323" stroke-miterlimit="10" cx="63.292" cy="97.344" rx="12.479" ry="0.63"/>
	
		<ellipse fill="#FFFFFF" stroke="#000000" stroke-width="6.0323" stroke-miterlimit="10" cx="63.292" cy="107.525" rx="12.479" ry="0.63"/>
	
		<ellipse fill="#FFFFFF" stroke="#000000" stroke-width="6.0323" stroke-miterlimit="10" cx="63.292" cy="117.089" rx="12.479" ry="0.63"/>
	
		<ellipse fill="#FFFFFF" stroke="#000000" stroke-width="6.0323" stroke-miterlimit="10" cx="63.292" cy="127.378" rx="12.479" ry="0.63"/>
	
		<ellipse fill="#FFFFFF" stroke="#000000" stroke-width="6.0323" stroke-miterlimit="10" cx="32.619" cy="76.455" rx="12.479" ry="0.63"/>
	
		<ellipse fill="#FFFFFF" stroke="#000000" stroke-width="6.0323" stroke-miterlimit="10" cx="32.353" cy="86.534" rx="12.479" ry="0.63"/>
	
		<ellipse fill="#FFFFFF" stroke="#000000" stroke-width="6.0323" stroke-miterlimit="10" cx="32.021" cy="96.714" rx="12.479" ry="0.63"/>
	
		<ellipse fill="#FFFFFF" stroke="#000000" stroke-width="6.0323" stroke-miterlimit="10" cx="32.021" cy="106.372" rx="12.479" ry="0.63"/>
	
		<ellipse fill="#FFFFFF" stroke="#000000" stroke-width="6.0323" stroke-miterlimit="10" cx="31.49" cy="116.459" rx="12.479" ry="0.63"/>
	
		<ellipse fill="#FFFFFF" stroke="#000000" stroke-width="6.0323" stroke-miterlimit="10" cx="31.49" cy="126.748" rx="12.479" ry="0.63"/>
</g>
</svg>
