<?xml version="1.0" encoding="utf-8"?>
<!-- Generator: Adobe Illustrator 26.5.0, SVG Export Plug-In . SVG Version: 6.00 Build 0)  -->
<svg version="1.1" id="Layer_1" xmlns="http://www.w3.org/2000/svg" xmlns:xlink="http://www.w3.org/1999/xlink" x="0px" y="0px"
	 viewBox="0 0 424.846 378.373" enable-background="new 0 0 424.846 378.373" xml:space="preserve">
<g id="iCON-2">
	<g>
		<polygon points="199.25,159.513 140.152,130.883 140.152,188.144 		"/>
		<path d="M139.887,188.582v-58.137l0.374,0.18l59.628,28.887L139.887,188.582z M140.417,131.32v56.389l58.194-28.196
			L140.417,131.32z"/>
	</g>
	<g>
		<path d="M167.451,219.724c-33.592,0-60.921-26.9-60.921-59.967s27.329-59.967,60.921-59.967s60.921,26.9,60.921,59.967
			S201.043,219.724,167.451,219.724z M167.451,110.539c-28.049,0-50.87,22.079-50.87,49.218s22.821,49.218,50.87,49.218
			s50.87-22.079,50.87-49.218S195.5,110.539,167.451,110.539z"/>
	</g>
	<g>
		<path d="M81.139,302.234l16.087-109.267l-70.952-76.78l97.399-16.506L166.825,0l44.22,99.14l97.569,15.308l-70.12,77.649
			l17.258,109.063l-87.581-51.014L81.139,302.234z M33.332,118.666l67.509,73.056L85.577,295.42l82.57-49.416l83.098,48.397
			l-16.381-103.506l66.721-73.882l-92.824-14.561L166.869,8.53l-40.879,94.43L33.332,118.666z"/>
	</g>
	<g>
		<path d="M0,333.804h22.083v4.75H5.293v14.575h15.512v4.683H5.293v19.846H0V333.804z"/>
		<path d="M31.524,363.864l-4.258,13.793h-5.476l13.932-43.854h6.388l13.991,43.854h-5.657l-4.379-13.793H31.524z M44.968,359.441
			l-4.015-12.625c-0.911-2.861-1.521-5.465-2.128-8.003h-0.124c-0.607,2.604-1.276,5.271-2.068,7.939l-4.015,12.689H44.968z"/>
		<path d="M67.923,377.658l-13.384-43.854h5.719l6.388,21.602c1.766,5.92,3.287,11.255,4.381,16.394h0.121
			c1.157-5.075,2.858-10.604,4.684-16.331l6.935-21.666h5.659l-14.662,43.854H67.923z"/>
		<path d="M127.925,355.276c0,15.094-8.579,23.096-19.041,23.096c-10.828,0-18.435-8.977-18.435-22.251
			c0-13.926,8.092-23.033,19.041-23.033C120.685,333.089,127.925,342.262,127.925,355.276z M96.108,355.992
			c0,9.369,4.743,17.761,13.08,17.761c8.394,0,13.139-8.262,13.139-18.217c0-8.72-4.258-17.828-13.08-17.828
			C100.487,337.708,96.108,346.36,96.108,355.992z"/>
		<path d="M140.115,333.804v25.96c0,9.825,4.074,13.989,9.55,13.989c6.083,0,9.976-4.294,9.976-13.989v-25.96h5.355v25.57
			c0,13.467-6.633,18.998-15.514,18.998c-8.394,0-14.722-5.139-14.722-18.739v-25.83H140.115z"/>
		<path d="M174.203,334.389c2.675-0.585,6.509-0.911,10.16-0.911c5.657,0,9.308,1.107,11.861,3.579
			c2.068,1.952,3.225,4.946,3.225,8.328c0,5.791-3.406,9.629-7.725,11.192v0.193c3.163,1.173,5.048,4.297,6.021,8.85
			c1.34,6.116,2.313,10.344,3.165,12.037h-5.476c-0.669-1.237-1.583-5.009-2.737-10.477c-1.216-6.05-3.408-8.328-8.213-8.522h-4.988
			v18.998h-5.293V334.389z M179.496,354.365h5.414c5.657,0,9.246-3.319,9.246-8.328c0-5.661-3.832-8.135-9.429-8.199
			c-2.556,0-4.379,0.26-5.231,0.519V354.365z"/>
		<path d="M212.243,333.804v43.854h-5.293v-43.854H212.243z"/>
		<path d="M229.286,338.62h-12.473v-4.816h30.358v4.816h-12.532v39.038h-5.352V338.62z"/>
		<path d="M272.981,357.096h-15.938v15.812h17.763v4.75H251.75v-43.854h22.142v4.75h-16.849v13.859h15.938V357.096z"/>
		<path d="M299.893,338.62H287.42v-4.816h30.358v4.816h-12.532v39.038h-5.352V338.62z"/>
		<path d="M327.65,333.804v25.96c0,9.825,4.074,13.989,9.55,13.989c6.083,0,9.976-4.294,9.976-13.989v-25.96h5.355v25.57
			c0,13.467-6.633,18.998-15.514,18.998c-8.394,0-14.722-5.139-14.722-18.739v-25.83H327.65z"/>
		<path d="M361.738,377.658v-43.854h5.778l13.142,22.188c3.041,5.139,5.414,9.759,7.361,14.249l0.121-0.066
			c-0.488-5.854-0.609-11.189-0.609-18.024v-18.347h4.988v43.854h-5.352l-13.02-22.251c-2.858-4.882-5.595-9.891-7.663-14.641
			l-0.183,0.066c0.305,5.528,0.426,10.8,0.426,18.087v18.739H361.738z"/>
		<path d="M423.021,357.096h-15.938v15.812h17.763v4.75H401.79v-43.854h22.145v4.75h-16.852v13.859h15.938V357.096z"/>
	</g>
</g>
</svg>
