<?xml version="1.0" encoding="utf-8"?>
<!-- Generator: Adobe Illustrator 26.5.0, SVG Export Plug-In . SVG Version: 6.00 Build 0)  -->
<svg version="1.1" id="Layer_1" xmlns="http://www.w3.org/2000/svg" xmlns:xlink="http://www.w3.org/1999/xlink" x="0px" y="0px"
	 viewBox="0 0 319.636 231.683" enable-background="new 0 0 319.636 231.683" xml:space="preserve">
<g id="flute">
	<path fill="#FFD700" stroke="#000000" stroke-width="0.6792" stroke-miterlimit="10" d="M262.019,116.025l-114.706-19.83
		c-6.548,11.089-7.429,22.56-3.402,34.364l114.706,19.83"/>
	<path fill="#FFD700" stroke="#000000" stroke-width="0.6798" stroke-miterlimit="10" d="M151.846,96.979L36.942,77.115
		c-6.557,11.087-7.438,22.559-3.403,34.363l114.904,19.864"/>
	
		<ellipse transform="matrix(0.9997 -0.0258 0.0258 0.9997 -2.653 2.9143)" stroke="#000000" stroke-width="0.6798" stroke-miterlimit="10" cx="111.759" cy="104.404" rx="5.74" ry="7.818"/>
	
		<ellipse transform="matrix(0.9997 -0.0258 0.0258 0.9997 -2.8522 4.1619)" stroke="#000000" stroke-width="0.6798" stroke-miterlimit="10" cx="160.07" cy="112.755" rx="5.74" ry="7.818"/>
	
		<ellipse transform="matrix(0.9997 -0.0258 0.0258 0.9997 -2.9986 5.0787)" stroke="#000000" stroke-width="0.6798" stroke-miterlimit="10" cx="195.572" cy="118.893" rx="5.74" ry="7.818"/>
	
		<ellipse transform="matrix(0.9997 -0.0258 0.0258 0.9997 -3.1543 6.0547)" stroke="#000000" stroke-width="0.6798" stroke-miterlimit="10" cx="233.364" cy="125.426" rx="5.74" ry="7.818"/>
	<path fill="none" stroke="#000000" stroke-width="0.6792" stroke-miterlimit="10" d="M131.43,93.449
		c-7.221,9.716-7.492,21.392-2.811,34.466"/>
	<path fill="none" stroke="#000000" stroke-width="0.6792" stroke-miterlimit="10" d="M76.007,83.868
		c-6.017,10.274-6.382,21.9-2.811,34.466"/>
	<path fill="none" stroke="#000000" stroke-width="0.6792" stroke-miterlimit="10" d="M70.431,82.904
		c-6.017,10.274-6.382,21.9-2.811,34.466"/>
	
		<ellipse transform="matrix(0.0639 -0.998 0.998 0.0639 111.312 385.335)" stroke="#000000" stroke-width="0.6798" stroke-miterlimit="10" cx="261.055" cy="133.334" rx="17.304" ry="6.965"/>
	<path fill="none" stroke="#000000" stroke-width="2.297" stroke-miterlimit="10" d="M40.867,230.534h237.901
		c21.936,0,39.719-17.783,39.719-39.719V40.867c0-21.936-17.783-39.719-39.719-39.719H40.867c-21.936,0-39.719,17.783-39.719,39.719
		v149.949C1.149,212.752,18.931,230.534,40.867,230.534z"/>
	<path id="path26_00000111181422257156367440000003027791520279234461_" stroke="#000000" stroke-width="0.5291" d="M211.076,8.671
		c-3.58-0.06-7.767,5.44-7.628,10.345c0.032,1.494,0.765,4.524,1.834,8.329c-6.744,4.491-14.574,9.099-14.574,15.146
		c-0.108,5.542,5.157,12.602,17.646,12.534c1.917-0.008,3.642-0.161,5.174-0.424c1.142,4.028,1.901,7.207,1.896,8.675
		c0.04,5.789-11.781,6.362-12.348,3.035c2.492-0.055,4.474-1.328,4.474-2.903c0-1.609-2.07-2.92-4.639-2.92
		c-1.412,0-2.671,0.399-3.525,1.023c-0.02,0.013-0.043,0.025-0.062,0.038c-0.193,0.132-0.355,0.289-0.515,0.467
		c-0.526,0.573-0.868,1.396-0.887,2.572c0,4.847,19.047,7.966,19.047-1.592c0.03-1.286-0.83-4.55-2.082-8.662
		c13.591-3.162,10.176-16.145-2.329-16.206c-0.97,0.006-1.904,0.079-2.804,0.226c-0.712-2.206-1.4-4.346-2-6.314
		c4.749-3.001,8.895-6.886,8.802-14.045C216.574,12.854,213.911,8.731,211.076,8.671z M211.921,13.645
		c1.62-0.101,2.906,0.867,2.906,2.997c0.131,3.658-3.852,6.853-8.596,10.067c-0.454-1.76-0.751-3.186-0.784-4.032
		C205.582,16.962,209.22,13.812,211.921,13.645z M206.829,32.611c0.579,1.916,1.203,3.935,1.834,5.969
		c-8.277,1.895-12.25,9.318-0.515,12.639c-7.153-3.918-3.632-8.555,1.525-9.363c1.297,4.166,2.563,8.277,3.587,11.829
		c-1.39,0.314-3.012,0.497-4.906,0.505c-4.737,0-14.203-1.94-14.203-9.284C194.151,38.754,200.779,36.254,206.829,32.611z
		 M210.849,41.722c0.206-0.008,0.43-0.005,0.639,0c8.617,0,11.867,8.804,3.092,11.618C213.488,49.81,212.164,45.761,210.849,41.722z
		"/>
	<path id="path26" stroke="#000000" stroke-width="0.5291" d="M257.772,38.94c-3.58-0.06-7.767,5.44-7.628,10.345
		c0.032,1.494,0.765,4.524,1.834,8.329c-6.744,4.491-14.574,9.099-14.574,15.146c-0.108,5.542,5.157,12.602,17.646,12.534
		c1.917-0.008,3.642-0.161,5.174-0.424c1.142,4.028,1.901,7.207,1.897,8.675c0.04,5.789-11.781,6.362-12.348,3.035
		c2.492-0.055,4.474-1.328,4.474-2.903c0-1.609-2.07-2.92-4.639-2.92c-1.412,0-2.671,0.399-3.525,1.023
		c-0.02,0.013-0.043,0.025-0.062,0.038c-0.193,0.132-0.355,0.289-0.515,0.467c-0.526,0.573-0.868,1.396-0.887,2.572
		c0,4.847,19.048,7.966,19.048-1.592c0.03-1.286-0.83-4.55-2.082-8.662c13.591-3.162,10.176-16.145-2.329-16.206
		c-0.97,0.006-1.904,0.079-2.804,0.226c-0.712-2.206-1.4-4.346-2-6.314c4.749-3.001,8.895-6.886,8.802-14.045
		C263.269,43.123,260.607,39,257.772,38.94z M258.617,43.914c1.62-0.101,2.906,0.867,2.906,2.997
		c0.131,3.658-3.852,6.853-8.596,10.067c-0.454-1.76-0.751-3.186-0.784-4.032C252.278,47.231,255.916,44.081,258.617,43.914z
		 M253.525,62.88c0.579,1.916,1.203,3.935,1.834,5.969c-8.277,1.895-12.25,9.318-0.515,12.639c-7.153-3.918-3.632-8.555,1.525-9.363
		c1.297,4.166,2.563,8.277,3.587,11.829c-1.39,0.314-3.012,0.497-4.906,0.505c-4.737,0-14.203-1.94-14.203-9.284
		C240.847,69.023,247.474,66.523,253.525,62.88z M257.545,71.991c0.206-0.008,0.43-0.005,0.639,0c8.617,0,11.867,8.804,3.092,11.618
		C260.184,80.079,258.86,76.03,257.545,71.991z"/>
</g>
</svg>
