<?xml version="1.0" encoding="utf-8"?>
<!-- Generator: Adobe Illustrator 26.5.0, SVG Export Plug-In . SVG Version: 6.00 Build 0)  -->
<svg version="1.1" id="Layer_1" xmlns="http://www.w3.org/2000/svg" xmlns:xlink="http://www.w3.org/1999/xlink" x="0px" y="0px"
	 viewBox="0 0 191.32 179.796" enable-background="new 0 0 191.32 179.796" xml:space="preserve">
<g id="rec">
	<path fill="#FFFFFF" stroke="#000000" stroke-width="3.7804" stroke-miterlimit="10" d="M143.594,177.906H47.726
		c-25.314,0-45.836-20.521-45.836-45.836V47.726C1.89,22.412,22.412,1.89,47.726,1.89h95.868c25.314,0,45.836,20.521,45.836,45.836
		v84.344C189.43,157.384,168.908,177.906,143.594,177.906z"/>
	<polyline fill="none" stroke="#000000" stroke-width="4.3819" stroke-miterlimit="10" points="65.492,143.598 38.392,143.598 
		38.392,29.92 65.492,29.92 	"/>
	<polyline fill="none" stroke="#000000" stroke-width="4.3819" stroke-miterlimit="10" points="125.223,29.92 152.323,29.92 
		152.323,143.598 125.223,143.598 	"/>
	<g>
		<path d="M72.368,75.252c1.42-0.28,3.455-0.437,5.392-0.437c3.003,0,4.94,0.529,6.296,1.712c1.098,0.934,1.711,2.364,1.711,3.982
			c0,2.769-1.808,4.604-4.1,5.352v0.093c1.679,0.561,2.68,2.054,3.196,4.231c0.71,2.925,1.227,4.947,1.679,5.756h-2.906
			c-0.355-0.591-0.839-2.396-1.453-5.009c-0.646-2.894-1.809-3.982-4.359-4.076h-2.648v9.085h-2.809V75.252z M75.177,84.802h2.874
			c3.002,0,4.907-1.586,4.907-3.982c0-2.706-2.034-3.889-5.004-3.92c-1.356,0-2.325,0.125-2.777,0.249V84.802z"/>
		<path d="M101.008,86.109h-8.459v7.561h9.428v2.271H89.74v-20.97h11.752v2.271h-8.944v6.627h8.459V86.109z"/>
		<path d="M120.834,95.257c-1.033,0.498-3.1,0.996-5.747,0.996c-6.135,0-10.752-3.734-10.752-10.609
			c0-6.565,4.617-11.015,11.365-11.015c2.712,0,4.424,0.561,5.166,0.934l-0.678,2.209c-1.065-0.498-2.583-0.871-4.391-0.871
			c-5.102,0-8.492,3.143-8.492,8.649c0,5.134,3.067,8.432,8.362,8.432c1.711,0,3.455-0.343,4.585-0.871L120.834,95.257z"/>
	</g>
</g>
</svg>
