<?xml version="1.0" encoding="utf-8"?>
<!-- Generator: Adobe Illustrator 26.5.0, SVG Export Plug-In . SVG Version: 6.00 Build 0)  -->
<svg version="1.1" id="Layer_1" xmlns="http://www.w3.org/2000/svg" xmlns:xlink="http://www.w3.org/1999/xlink" x="0px" y="0px"
	 viewBox="0 0 164.541 172.436" enable-background="new 0 0 164.541 172.436" xml:space="preserve">
<g id="speakeers">
	
		<ellipse fill="none" stroke="#000000" stroke-width="0.7366" stroke-miterlimit="10" cx="52.345" cy="107.896" rx="18.014" ry="16.465"/>
	<ellipse stroke="#000000" stroke-width="0.6998" stroke-miterlimit="10" cx="50.915" cy="107.896" rx="5.772" ry="5.561"/>
	
		<ellipse fill="#FFFFFF" stroke="#000000" stroke-width="0.6998" stroke-miterlimit="10" cx="50.915" cy="107.896" rx="1.43" ry="1.378"/>
	
		<ellipse fill="none" stroke="#000000" stroke-width="0.7366" stroke-miterlimit="10" cx="52.345" cy="70.152" rx="18.014" ry="16.465"/>
	<ellipse stroke="#000000" stroke-width="0.6998" stroke-miterlimit="10" cx="52.585" cy="71.019" rx="5.772" ry="5.561"/>
	
		<ellipse fill="#FFFFFF" stroke="#000000" stroke-width="0.6998" stroke-miterlimit="10" cx="52.585" cy="71.019" rx="1.43" ry="1.378"/>
	
		<rect x="30.09" y="44.255" fill="none" stroke="#000000" stroke-width="0.7829" stroke-miterlimit="10" width="44.509" height="86.183"/>
	
		<ellipse fill="none" stroke="#000000" stroke-width="0.7916" stroke-miterlimit="10" cx="105.32" cy="104.401" rx="18.014" ry="19.017"/>
	<ellipse stroke="#000000" stroke-width="0.7521" stroke-miterlimit="10" cx="103.89" cy="104.401" rx="5.772" ry="6.423"/>
	
		<ellipse fill="#FFFFFF" stroke="#000000" stroke-width="0.7521" stroke-miterlimit="10" cx="103.89" cy="104.401" rx="1.43" ry="1.591"/>
	
		<ellipse fill="none" stroke="#000000" stroke-width="0.7916" stroke-miterlimit="10" cx="105.32" cy="60.806" rx="18.014" ry="19.017"/>
	<ellipse stroke="#000000" stroke-width="0.7521" stroke-miterlimit="10" cx="105.56" cy="61.808" rx="5.772" ry="6.423"/>
	
		<ellipse fill="#FFFFFF" stroke="#000000" stroke-width="0.7521" stroke-miterlimit="10" cx="105.56" cy="61.808" rx="1.43" ry="1.591"/>
	
		<rect x="83.066" y="30.894" fill="none" stroke="#000000" stroke-width="0.8414" stroke-miterlimit="10" width="44.509" height="99.544"/>
	<path fill="none" stroke="#000000" stroke-width="2.7273" stroke-miterlimit="10" d="M28.605,158.857h109.504
		c12.011,0,21.748-9.737,21.748-21.748V33.184c0-12.011-9.737-21.748-21.748-21.748H28.605c-12.011,0-21.748,9.737-21.748,21.748
		v103.925C6.857,149.12,16.594,158.857,28.605,158.857z"/>
</g>
</svg>
