<?xml version="1.0" encoding="utf-8"?>
<!-- Generator: Adobe Illustrator 26.5.0, SVG Export Plug-In . SVG Version: 6.00 Build 0)  -->
<svg version="1.1" id="Layer_1" xmlns="http://www.w3.org/2000/svg" xmlns:xlink="http://www.w3.org/1999/xlink" x="0px" y="0px"
	 viewBox="0 0 233 204" enable-background="new 0 0 233 204" xml:space="preserve">
<g id="Icon-1">
	<path fill="#FFFFFF" stroke="#000000" stroke-width="2" stroke-miterlimit="10" d="M27.328,203h178.343
		C220.212,203,232,191.212,232,176.672V27.328C232,12.788,220.212,1,205.672,1H27.328C12.788,1,1,12.788,1,27.328v149.343
		C1,191.212,12.788,203,27.328,203z"/>
	<g>
		<polyline fill="#FFFFFF" stroke="#000000" stroke-width="4.9758" stroke-miterlimit="10" points="120.923,116.905 71.599,31.507 
			18.781,64.996 54.569,131.347 		"/>
		<ellipse transform="matrix(0.8318 -0.5551 0.5551 0.8318 -49.9889 77.6481)" cx="103.117" cy="121.3" rx="20.469" ry="9.375"/>
		<ellipse transform="matrix(0.8605 -0.5095 0.5095 0.8605 -66.2689 39.5942)" cx="39.156" cy="140.789" rx="20.222" ry="9.49"/>
	</g>
	
		<line fill="#FFFFFF" stroke="#000000" stroke-width="7.3531" stroke-miterlimit="10" x1="213.219" y1="123.646" x2="28.366" y2="123.646"/>
	
		<line fill="#FFFFFF" stroke="#000000" stroke-width="7.3531" stroke-miterlimit="10" x1="213.219" y1="153.87" x2="28.366" y2="153.87"/>
	
		<line fill="#FFFFFF" stroke="#000000" stroke-width="7.3531" stroke-miterlimit="10" x1="213.219" y1="93.422" x2="28.366" y2="93.422"/>
	
		<line fill="#FFFFFF" stroke="#000000" stroke-width="7.3531" stroke-miterlimit="10" x1="213.219" y1="63.199" x2="28.366" y2="63.199"/>
</g>
</svg>
