<?xml version="1.0" encoding="utf-8"?>
<!-- Generator: Adobe Illustrator 26.5.0, SVG Export Plug-In . SVG Version: 6.00 Build 0)  -->
<svg version="1.1" id="Layer_1" xmlns="http://www.w3.org/2000/svg" xmlns:xlink="http://www.w3.org/1999/xlink" x="0px" y="0px"
	 viewBox="0 0 248.819 209.401" enable-background="new 0 0 248.819 209.401" xml:space="preserve">
<g id="Icon-1">
	<path fill="#FFFFFF" stroke="#000000" stroke-miterlimit="10" d="M39.319,195.4h172c11.874,0,21.5-9.626,21.5-21.5v-145
		c0-11.874-9.626-21.5-21.5-21.5h-172c-11.874,0-21.5,9.626-21.5,21.5v145C17.819,185.774,27.445,195.4,39.319,195.4z"/>
	
		<line fill="#FFFFFF" stroke="#000000" stroke-width="6.6124" stroke-miterlimit="10" x1="219.006" y1="114.514" x2="39.375" y2="114.514"/>
	
		<line fill="#FFFFFF" stroke="#000000" stroke-width="6.6124" stroke-miterlimit="10" x1="219.006" y1="139.666" x2="39.375" y2="139.666"/>
	
		<line fill="#FFFFFF" stroke="#000000" stroke-width="6.6124" stroke-miterlimit="10" x1="219.006" y1="89.361" x2="39.375" y2="89.361"/>
	<path id="path26" stroke="#000000" d="M96.363,30.39C90.936,30.249,84.589,43.208,84.8,54.765c0.049,3.52,1.16,10.659,2.781,19.625
		c-10.223,10.581-22.094,21.44-22.094,35.688c-0.163,13.057,7.817,29.692,26.75,29.532c2.906-0.02,5.521-0.38,7.844-1
		c1.731,9.49,2.882,16.98,2.875,20.44c0.061,13.64-17.86,14.99-18.719,7.15c3.777-0.13,6.782-3.13,6.782-6.84
		c0-3.79-3.138-6.88-7.032-6.88c-2.141,0-4.049,0.94-5.343,2.41c-0.03,0.03-0.065,0.06-0.094,0.09c-0.292,0.31-0.538,0.68-0.781,1.1
		c-0.798,1.35-1.316,3.29-1.344,6.06c0,11.42,28.875,18.77,28.875-3.75c0.045-3.03-1.258-10.72-3.156-20.41
		c20.603-7.45,15.427-38.04-3.531-38.184c-1.47,0.015-2.887,0.186-4.25,0.532c-1.08-5.197-2.122-10.241-3.032-14.876
		c7.199-7.071,13.485-16.224,13.344-33.093C104.697,40.245,100.661,30.531,96.363,30.39z M97.644,42.109
		c2.456-0.237,4.406,2.043,4.406,7.062c0.199,8.62-5.84,16.148-13.031,23.719c-0.688-4.147-1.139-7.507-1.188-9.5
		C88.035,49.924,93.55,42.504,97.644,42.109z M89.925,86.796c0.877,4.515,1.824,9.272,2.781,14.063
		c-12.548,4.464-18.57,21.954-0.781,29.781c-10.843-9.231-5.506-20.158,2.312-22.062c1.966,9.816,3.886,19.502,5.438,27.872
		c-2.107,0.74-4.566,1.17-7.438,1.19c-7.181,0-21.531-4.57-21.531-21.875C70.706,101.271,80.753,95.381,89.925,86.796z
		 M96.019,108.265c0.313-0.019,0.652-0.011,0.968,0c13.063,0,17.99,20.745,4.688,27.375C100.02,127.32,98.013,117.78,96.019,108.265
		z"/>
	
		<line fill="#FFFFFF" stroke="#000000" stroke-width="6.6124" stroke-miterlimit="10" x1="219.006" y1="64.209" x2="39.375" y2="64.209"/>
</g>
</svg>
