<?xml version="1.0" encoding="utf-8"?>
<!-- Generator: Adobe Illustrator 27.4.0, SVG Export Plug-In . SVG Version: 6.00 Build 0)  -->
<svg version="1.1" id="Layer_1" xmlns="http://www.w3.org/2000/svg" xmlns:xlink="http://www.w3.org/1999/xlink" x="0px" y="0px"
	 viewBox="0 0 839.3 167.3" style="enable-background:new 0 0 839.3 167.3;" xml:space="preserve">
<style type="text/css">
	.st0{fill:#FFFFFF;}
</style>
<path class="st0" d="M44,40.5H0l4.1-30.1h122L122,40.5H78L60.6,164.7h-34L44,40.5L44,40.5z"/>
<path class="st0" d="M169.1,0l-10.2,73.2h0.4c1-2,2.5-4.1,4.5-6.1c2-2,4.3-3.8,7-5.5c2.7-1.6,5.8-2.9,9.3-3.9
	c3.5-1,7.2-1.5,11.1-1.5c8.3,0,14.8,1.3,19.6,3.8c4.8,2.5,8.3,6.1,10.5,10.6c2.2,4.5,3.3,9.8,3.5,15.9c0.1,6.1-0.3,12.7-1.3,19.8
	l-8.1,58.4h-32.7l7.2-51.8c0.4-3.1,0.8-6.2,1.1-9.5c0.3-3.3,0.1-6.3-0.6-9c-0.7-2.8-2.1-5-4.1-6.8s-5.2-2.6-9.4-2.6
	s-7.7,0.8-10.6,2.3c-2.8,1.5-5.1,3.6-6.9,6.1s-3.1,5.4-3.9,8.6c-0.9,3.2-1.5,6.5-2,10l-7.4,52.7h-32.7L136.4,0H169.1L169.1,0z"/>
<path class="st0" d="M336.6,146.4c-6.1,6.7-13.4,11.8-21.9,15.5c-8.5,3.6-17,5.4-25.6,5.4s-15.6-1.3-22.4-3.9
	c-6.8-2.6-12.5-6.4-17.1-11.2c-4.6-4.9-7.9-10.7-10-17.5c-2.1-6.8-2.6-14.4-1.4-22.9s3.7-16,7.7-22.9c4-6.8,9-12.7,14.9-17.5
	c6-4.9,12.7-8.6,20.3-11.2c7.5-2.6,15.4-3.9,23.5-3.9c7.5,0,14.2,1.3,20,3.9c5.8,2.6,10.5,6.4,14.2,11.2c3.6,4.9,6.1,10.7,7.5,17.5
	c1.4,6.8,1.5,14.4,0.3,22.9l-1.5,10.2h-75.8c0.4,6.2,2.6,11.2,6.4,14.9s9,5.6,15.4,5.6c5.4,0,10.1-1.2,14-3.6c4-2.4,7.7-5.5,11-9.3
	L336.6,146.4L336.6,146.4z M315.4,99.8c0.9-5.5-0.3-10.2-3.5-14.2c-3.2-3.9-7.8-5.9-13.7-5.9c-3.6,0-6.9,0.6-9.8,1.7
	c-2.9,1.2-5.5,2.7-7.6,4.5s-4,3.9-5.5,6.3s-2.5,4.9-3,7.5L315.4,99.8L315.4,99.8z"/>
<path class="st0" d="M441.8,10.5h34l-17.2,122.9h63l-4.4,31.4h-96.9L441.8,10.5L441.8,10.5z"/>
<path class="st0" d="M530.9,111.8c1.2-8.4,3.7-16.1,7.7-22.9s9-12.7,14.9-17.5c6-4.9,12.7-8.6,20.3-11.2c7.5-2.6,15.4-3.9,23.5-3.9
	s15.6,1.3,22.4,3.9c6.8,2.6,12.6,6.4,17.2,11.2c4.7,4.9,8,10.7,10.1,17.5s2.6,14.4,1.4,22.9c-1.2,8.4-3.8,16.1-7.8,22.9
	c-4.1,6.8-9.1,12.7-15,17.5c-6,4.9-12.7,8.6-20.3,11.2c-7.5,2.6-15.4,3.9-23.5,3.9s-15.6-1.3-22.4-3.9s-12.5-6.4-17.1-11.2
	c-4.6-4.9-7.9-10.7-10-17.5C530.2,127.8,529.7,120.2,530.9,111.8L530.9,111.8z M563.6,111.8c-1.2,8,0.2,14.4,4,19.4
	c3.8,4.9,9.9,7.4,18.2,7.4s15.1-2.5,20.4-7.4s8.5-11.4,9.7-19.4s-0.2-14.4-4.1-19.4c-3.9-4.9-10-7.4-18.3-7.4s-15,2.5-20.3,7.4
	S564.7,103.8,563.6,111.8L563.6,111.8z"/>
<path class="st0" d="M726.3,90c-3.9-5.9-9.9-8.9-17.9-8.9c-2.8,0-5.5,0.7-8.3,2s-4.4,3.6-4.8,6.8c-0.4,2.6,0.7,4.5,3.3,5.8
	c2.6,1.2,5.9,2.3,9.8,3.3c3.9,0.9,8.2,2,12.7,3.1c4.6,1.1,8.8,2.8,12.5,5.1c3.8,2.3,6.7,5.5,8.8,9.5c2.1,4,2.7,9.3,1.8,16
	c-0.9,6.8-3.1,12.4-6.8,16.9c-3.6,4.4-8,8-13,10.7c-5,2.7-10.5,4.6-16.5,5.7s-11.8,1.6-17.4,1.6c-7.4,0-14.7-1.1-22-3.2
	s-13.2-5.8-17.6-11.2l22.9-22c2.6,3.8,5.6,6.6,9,8.6s7.6,2.9,12.5,2.9c3.8,0,7.3-0.5,10.5-1.6c3.2-1.1,5-3.1,5.5-6
	c0.4-2.8-0.6-4.8-3.2-6.2c-2.5-1.4-5.8-2.5-9.8-3.5c-4-0.9-8.3-2-12.8-3.1c-4.6-1.1-8.8-2.7-12.6-4.9c-3.8-2.2-6.9-5.3-9-9.3
	c-2.2-4-2.8-9.3-1.7-16c0.9-6.2,2.9-11.6,6.1-16.1c3.2-4.5,7.1-8.2,11.7-11.1c4.6-2.9,9.6-5,15.1-6.4c5.5-1.4,11-2.1,16.6-2.1
	c7,0,13.9,1,20.7,3c6.8,2,12.3,5.7,16.6,10.9L726.3,90L726.3,90z"/>
<path class="st0" d="M835.6,85h-28.8l-5,35.3c-0.4,2.9-0.7,5.6-0.7,7.9s0.4,4.5,1.2,6.2s2.2,3.1,4.1,4c2,0.9,4.7,1.4,8.2,1.4
	c1.7,0,4-0.2,6.9-0.5c2.8-0.4,5-1.2,6.6-2.5l-3.7,27.2c-3.8,1.3-7.7,2.2-11.7,2.6c-4,0.4-7.9,0.6-11.7,0.6c-5.5,0-10.5-0.6-15-1.7
	s-8.3-3-11.4-5.6c-3.1-2.5-5.4-5.8-6.8-9.9c-1.4-4.1-1.7-9-1-14.8l7.2-50.3h-20.9l3.7-26.1h20.9l4.4-31.4H815l-4.4,31.4h28.8
	L835.6,85L835.6,85z"/>
</svg>
