<?xml version="1.0" encoding="utf-8"?>
<!-- Generator: Adobe Illustrator 27.2.0, SVG Export Plug-In . SVG Version: 6.00 Build 0)  -->
<svg version="1.1" id="help-button" xmlns="http://www.w3.org/2000/svg" xmlns:xlink="http://www.w3.org/1999/xlink" x="0px"
	 y="0px" viewBox="0 0 56 55" style="enable-background:new 0 0 56 55;" xml:space="preserve">
<style type="text/css">
	.st0{fill:#231F20;}
	.st1{fill:#F72585;}
	.st2{fill:#FFFFFF;}
	.st3{font-family:'Futura-Bold';}
	.st4{font-size:32px;}
</style>
<defs>
	<script>let helpButton = document.querySelector(&apos;#help-button&apos;)

      function logID() {
      console.log(&quot;You&apos;ve selected&quot;, this.id);
      }

      helpButton.addEventListener(&apos;click&apos;, logID)
		</script>
</defs>
<g id="help">
	<path class="st0" d="M10.6,4.1h39.5c3.2,0,5.9,2.6,5.9,5.9v39.2c0,3.2-2.6,5.9-5.9,5.9H10.6c-3.2,0-5.9-2.6-5.9-5.9V9.9
		C4.7,6.7,7.3,4.1,10.6,4.1z"/>
	<path class="st1" d="M5.9,0h39.5c3.2,0,5.9,2.6,5.9,5.9v39.2c0,3.2-2.6,5.9-5.9,5.9H5.9c-3.2,0-5.9-2.6-5.9-5.9V5.9
		C0,2.6,2.6,0,5.9,0z"/>
	<text transform="matrix(1 0 0 1 16.22 38.3)" class="st2 st3 st4">?</text>
</g>
</svg>
