<?xml version="1.0" encoding="utf-8"?>
<!-- Generator: Adobe Illustrator 27.4.0, SVG Export Plug-In . SVG Version: 6.00 Build 0)  -->
<svg version="1.1" id="reset-button" xmlns="http://www.w3.org/2000/svg" xmlns:xlink="http://www.w3.org/1999/xlink" x="0px"
	 y="0px" viewBox="0 0 154.2 47" style="enable-background:new 0 0 154.2 47;" xml:space="preserve">
<style type="text/css">
	.st0{fill:#B5179E;}
	.st1{fill:#FFFFFF;}
	.st2{font-family:'Futura-Bold';}
	.st3{font-size:24px;}
	.st4{fill:none;stroke:#FFFFFF;stroke-miterlimit:10;}
</style>
<defs>
	<script>let resetButton = document.querySelector(&apos;#reset-button&apos;)

      function logID() {
      console.log(&quot;You&apos;ve selected&quot;, this.id);
      }

      resetButton.addEventListener(&apos;click&apos;, logID)
		</script>
</defs>
<g id="reset-button_00000109732660503663289950000011106853542719362993_">
	<path d="M14.1,5h131.1c5,0,9.1,4.1,9.1,9.1v23.8c0,5-4.1,9.1-9.1,9.1H14.1c-5,0-9.1-4.1-9.1-9.1V14.1C5,9.1,9.1,5,14.1,5z"/>
	<path class="st0" d="M9.1,0h131.1c5,0,9.1,4.1,9.1,9.1v23.8c0,5-4.1,9.1-9.1,9.1H9.1c-5,0-9.1-4.1-9.1-9.1V9.1C0,4.1,4.1,0,9.1,0z"
		/>
	<text transform="matrix(1 0 0 1 38.25 29.4)" class="st1 st2 st3">R</text>
	<text transform="matrix(1 0 0 1 38.25 29.4)" class="st4 st2 st3">R</text>
	<text transform="matrix(1 0 0 1 55.72 29.4)" class="st1 st2 st3">es</text>
	<text transform="matrix(1 0 0 1 55.72 29.4)" class="st4 st2 st3">es</text>
	<text transform="matrix(1 0 0 1 84.91 29.4)" class="st1 st2 st3">e</text>
	<text transform="matrix(1 0 0 1 84.91 29.4)" class="st4 st2 st3">e</text>
	<text transform="matrix(1 0 0 1 101.32 29.4)" class="st1 st2 st3">t</text>
	<text transform="matrix(1 0 0 1 101.32 29.4)" class="st4 st2 st3">t</text>
</g>
</svg>
